<mxfile host="app.diagrams.net" modified="2023-04-03T13:36:54.817Z" agent="Mozilla/5.0 (Windows NT 10.0; Win64; x64) AppleWebKit/537.36 (KHTML, like Gecko) Chrome/111.0.0.0 Safari/537.36" etag="yToyBxRCcGUfC6osDOh6" version="21.1.4" type="github">
  <diagram name="ㅇㅇㅇ" id="tCBpcBbCLm3aEicXd-65">
    <mxGraphModel dx="1434" dy="1591" grid="1" gridSize="10" guides="1" tooltips="1" connect="1" arrows="1" fold="1" page="1" pageScale="1" pageWidth="1169" pageHeight="827" math="0" shadow="0">
      <root>
        <object label="" id="0">
          <mxCell />
        </object>
        <mxCell id="1" parent="0" />
        <UserObject label="고객" tooltip="" id="CDqxD51NN-omRE-DvkwP-1">
          <mxCell style="shape=umlActor;verticalLabelPosition=bottom;verticalAlign=top;html=1;outlineConnect=0;gradientColor=none;movable=1;resizable=1;rotatable=1;deletable=1;editable=1;locked=0;connectable=1;" parent="1" vertex="1">
            <mxGeometry x="40" y="280" width="30" height="60" as="geometry" />
          </mxCell>
        </UserObject>
        <mxCell id="4j3NIIBJetrJBVHfiiN4-51" value="" style="edgeStyle=segmentEdgeStyle;endArrow=classic;html=1;curved=0;rounded=0;endSize=8;startSize=8;" parent="1" edge="1">
          <mxGeometry width="50" height="50" relative="1" as="geometry">
            <mxPoint x="1040" y="270" as="sourcePoint" />
            <mxPoint x="630" as="targetPoint" />
            <Array as="points">
              <mxPoint x="1040" />
            </Array>
          </mxGeometry>
        </mxCell>
        <mxCell id="CDqxD51NN-omRE-DvkwP-6" value="결 제" style="ellipse;whiteSpace=wrap;html=1;labelBackgroundColor=none;labelPosition=center;verticalLabelPosition=bottom;align=center;verticalAlign=top;" parent="1" vertex="1">
          <mxGeometry x="190" y="250" width="60" height="40" as="geometry" />
        </mxCell>
        <mxCell id="PNYUBWEe5Ndxz5fty6uA-4" value="사용자&lt;br&gt;" style="shape=umlActor;verticalLabelPosition=bottom;verticalAlign=top;html=1;outlineConnect=0;" parent="1" vertex="1">
          <mxGeometry x="580" y="-20" width="30" height="60" as="geometry" />
        </mxCell>
        <mxCell id="4j3NIIBJetrJBVHfiiN4-6" value="계좌 이체" style="ellipse;whiteSpace=wrap;html=1;labelBackgroundColor=none;labelPosition=center;verticalLabelPosition=bottom;align=center;verticalAlign=top;" parent="1" vertex="1">
          <mxGeometry x="140" y="350" width="60" height="40" as="geometry" />
        </mxCell>
        <mxCell id="4j3NIIBJetrJBVHfiiN4-7" value="결제 취소" style="ellipse;whiteSpace=wrap;html=1;labelBackgroundColor=none;labelPosition=center;verticalLabelPosition=bottom;align=center;verticalAlign=top;" parent="1" vertex="1">
          <mxGeometry x="190" y="414" width="60" height="40" as="geometry" />
        </mxCell>
        <mxCell id="4j3NIIBJetrJBVHfiiN4-8" value="카드 결제" style="ellipse;whiteSpace=wrap;html=1;labelBackgroundColor=none;labelPosition=center;verticalLabelPosition=bottom;align=center;verticalAlign=top;" parent="1" vertex="1">
          <mxGeometry x="230" y="350" width="60" height="40" as="geometry" />
        </mxCell>
        <mxCell id="4j3NIIBJetrJBVHfiiN4-9" value="계좌이체 결제 취소" style="ellipse;whiteSpace=wrap;html=1;labelBackgroundColor=none;labelPosition=center;verticalLabelPosition=bottom;align=center;verticalAlign=top;" parent="1" vertex="1">
          <mxGeometry x="150" y="500" width="60" height="40" as="geometry" />
        </mxCell>
        <mxCell id="4j3NIIBJetrJBVHfiiN4-10" value="카드결제 취소" style="ellipse;whiteSpace=wrap;html=1;labelBackgroundColor=none;labelPosition=center;verticalLabelPosition=bottom;align=center;verticalAlign=top;" parent="1" vertex="1">
          <mxGeometry x="230" y="500" width="60" height="40" as="geometry" />
        </mxCell>
        <mxCell id="4j3NIIBJetrJBVHfiiN4-11" value="예매&lt;br&gt;" style="ellipse;whiteSpace=wrap;html=1;labelBackgroundColor=none;labelPosition=center;verticalLabelPosition=bottom;align=center;verticalAlign=top;" parent="1" vertex="1">
          <mxGeometry x="230" y="170" width="60" height="40" as="geometry" />
        </mxCell>
        <mxCell id="4j3NIIBJetrJBVHfiiN4-12" value="예매 기능" style="ellipse;whiteSpace=wrap;html=1;labelBackgroundColor=none;labelPosition=center;verticalLabelPosition=bottom;align=center;verticalAlign=top;" parent="1" vertex="1">
          <mxGeometry x="190" y="60" width="60" height="40" as="geometry" />
        </mxCell>
        <mxCell id="4j3NIIBJetrJBVHfiiN4-17" value="" style="endArrow=classic;html=1;rounded=0;" parent="1" edge="1">
          <mxGeometry width="50" height="50" relative="1" as="geometry">
            <mxPoint x="70" y="270" as="sourcePoint" />
            <mxPoint x="170" y="120" as="targetPoint" />
            <Array as="points">
              <mxPoint x="100" y="230" />
            </Array>
          </mxGeometry>
        </mxCell>
        <mxCell id="4j3NIIBJetrJBVHfiiN4-30" value="" style="edgeStyle=elbowEdgeStyle;elbow=vertical;endArrow=classic;html=1;curved=0;rounded=0;endSize=8;startSize=8;" parent="1" edge="1">
          <mxGeometry width="50" height="50" relative="1" as="geometry">
            <mxPoint x="170" y="170" as="sourcePoint" />
            <mxPoint x="220" y="120" as="targetPoint" />
          </mxGeometry>
        </mxCell>
        <mxCell id="4j3NIIBJetrJBVHfiiN4-31" value="" style="edgeStyle=elbowEdgeStyle;elbow=vertical;endArrow=classic;html=1;curved=0;rounded=0;endSize=8;startSize=8;" parent="1" edge="1">
          <mxGeometry width="50" height="50" relative="1" as="geometry">
            <mxPoint x="270" y="170" as="sourcePoint" />
            <mxPoint x="220" y="120" as="targetPoint" />
            <Array as="points">
              <mxPoint x="250" y="145" />
            </Array>
          </mxGeometry>
        </mxCell>
        <mxCell id="4j3NIIBJetrJBVHfiiN4-39" value="예매 취소&lt;br&gt;" style="ellipse;whiteSpace=wrap;html=1;labelBackgroundColor=none;labelPosition=center;verticalLabelPosition=bottom;align=center;verticalAlign=top;" parent="1" vertex="1">
          <mxGeometry x="140" y="170" width="60" height="40" as="geometry" />
        </mxCell>
        <mxCell id="4j3NIIBJetrJBVHfiiN4-40" value="" style="endArrow=classic;html=1;rounded=0;entryX=0;entryY=0.75;entryDx=0;entryDy=0;entryPerimeter=0;" parent="1" target="CDqxD51NN-omRE-DvkwP-6" edge="1">
          <mxGeometry width="50" height="50" relative="1" as="geometry">
            <mxPoint x="100" y="300" as="sourcePoint" />
            <mxPoint x="150" y="250" as="targetPoint" />
          </mxGeometry>
        </mxCell>
        <mxCell id="4j3NIIBJetrJBVHfiiN4-41" value="" style="edgeStyle=elbowEdgeStyle;elbow=vertical;endArrow=classic;html=1;curved=0;rounded=0;endSize=8;startSize=8;" parent="1" edge="1">
          <mxGeometry width="50" height="50" relative="1" as="geometry">
            <mxPoint x="170" y="350" as="sourcePoint" />
            <mxPoint x="220" y="300" as="targetPoint" />
          </mxGeometry>
        </mxCell>
        <mxCell id="4j3NIIBJetrJBVHfiiN4-42" value="" style="edgeStyle=elbowEdgeStyle;elbow=vertical;endArrow=classic;html=1;curved=0;rounded=0;endSize=8;startSize=8;" parent="1" edge="1">
          <mxGeometry width="50" height="50" relative="1" as="geometry">
            <mxPoint x="270" y="350" as="sourcePoint" />
            <mxPoint x="220" y="300" as="targetPoint" />
          </mxGeometry>
        </mxCell>
        <mxCell id="4j3NIIBJetrJBVHfiiN4-43" value="" style="endArrow=classic;html=1;rounded=0;" parent="1" edge="1">
          <mxGeometry width="50" height="50" relative="1" as="geometry">
            <mxPoint x="60" y="380" as="sourcePoint" />
            <mxPoint x="170" y="430" as="targetPoint" />
          </mxGeometry>
        </mxCell>
        <mxCell id="4j3NIIBJetrJBVHfiiN4-45" value="" style="edgeStyle=elbowEdgeStyle;elbow=vertical;endArrow=classic;html=1;curved=0;rounded=0;endSize=8;startSize=8;" parent="1" edge="1">
          <mxGeometry width="50" height="50" relative="1" as="geometry">
            <mxPoint x="170" y="500" as="sourcePoint" />
            <mxPoint x="220" y="450" as="targetPoint" />
          </mxGeometry>
        </mxCell>
        <mxCell id="4j3NIIBJetrJBVHfiiN4-46" value="" style="edgeStyle=elbowEdgeStyle;elbow=vertical;endArrow=classic;html=1;curved=0;rounded=0;endSize=8;startSize=8;" parent="1" edge="1">
          <mxGeometry width="50" height="50" relative="1" as="geometry">
            <mxPoint x="270" y="500" as="sourcePoint" />
            <mxPoint x="220" y="450" as="targetPoint" />
          </mxGeometry>
        </mxCell>
        <mxCell id="4j3NIIBJetrJBVHfiiN4-50" value="" style="edgeStyle=segmentEdgeStyle;endArrow=classic;html=1;curved=0;rounded=0;endSize=8;startSize=8;" parent="1" source="CDqxD51NN-omRE-DvkwP-1" edge="1">
          <mxGeometry width="50" height="50" relative="1" as="geometry">
            <mxPoint x="40" y="250" as="sourcePoint" />
            <mxPoint x="560" as="targetPoint" />
            <Array as="points">
              <mxPoint x="40" />
            </Array>
          </mxGeometry>
        </mxCell>
        <mxCell id="4j3NIIBJetrJBVHfiiN4-55" value="관리자" style="shape=umlActor;verticalLabelPosition=bottom;verticalAlign=top;html=1;outlineConnect=0;" parent="1" vertex="1">
          <mxGeometry x="1020" y="270" width="30" height="60" as="geometry" />
        </mxCell>
        <mxCell id="4j3NIIBJetrJBVHfiiN4-56" value="관리자 로그아웃" style="ellipse;whiteSpace=wrap;html=1;labelPosition=center;verticalLabelPosition=bottom;align=center;verticalAlign=top;" parent="1" vertex="1">
          <mxGeometry x="670" y="250" width="70" height="40" as="geometry" />
        </mxCell>
        <mxCell id="4j3NIIBJetrJBVHfiiN4-57" value="입금 목록관리" style="ellipse;whiteSpace=wrap;html=1;labelPosition=center;verticalLabelPosition=bottom;align=center;verticalAlign=top;" parent="1" vertex="1">
          <mxGeometry x="800" y="80" width="70" height="40" as="geometry" />
        </mxCell>
        <mxCell id="4j3NIIBJetrJBVHfiiN4-58" value="상영관 등록" style="ellipse;whiteSpace=wrap;html=1;labelPosition=center;verticalLabelPosition=bottom;align=center;verticalAlign=top;" parent="1" vertex="1">
          <mxGeometry x="800" y="190" width="70" height="40" as="geometry" />
        </mxCell>
        <mxCell id="4j3NIIBJetrJBVHfiiN4-59" value="영화 관리" style="ellipse;whiteSpace=wrap;html=1;labelPosition=center;verticalLabelPosition=bottom;align=center;verticalAlign=top;" parent="1" vertex="1">
          <mxGeometry x="800" y="280" width="70" height="40" as="geometry" />
        </mxCell>
        <mxCell id="4j3NIIBJetrJBVHfiiN4-60" value="영화 등록" style="ellipse;whiteSpace=wrap;html=1;labelPosition=center;verticalLabelPosition=bottom;align=center;verticalAlign=top;" parent="1" vertex="1">
          <mxGeometry x="920" y="374" width="70" height="40" as="geometry" />
        </mxCell>
        <mxCell id="4j3NIIBJetrJBVHfiiN4-61" value="영화 수정" style="ellipse;whiteSpace=wrap;html=1;labelPosition=center;verticalLabelPosition=bottom;align=center;verticalAlign=top;" parent="1" vertex="1">
          <mxGeometry x="800" y="370" width="70" height="40" as="geometry" />
        </mxCell>
        <mxCell id="4j3NIIBJetrJBVHfiiN4-62" value="영화 상세조회" style="ellipse;whiteSpace=wrap;html=1;labelPosition=center;verticalLabelPosition=bottom;align=center;verticalAlign=top;" parent="1" vertex="1">
          <mxGeometry x="675" y="480" width="80" height="40" as="geometry" />
        </mxCell>
        <mxCell id="4j3NIIBJetrJBVHfiiN4-63" value="영화 검색" style="ellipse;whiteSpace=wrap;html=1;labelPosition=center;verticalLabelPosition=bottom;align=center;verticalAlign=top;" parent="1" vertex="1">
          <mxGeometry x="680" y="374" width="70" height="40" as="geometry" />
        </mxCell>
        <mxCell id="4j3NIIBJetrJBVHfiiN4-64" value="관리자 로그인" style="ellipse;whiteSpace=wrap;html=1;labelPosition=center;verticalLabelPosition=bottom;align=center;verticalAlign=top;" parent="1" vertex="1">
          <mxGeometry x="540" y="250" width="70" height="40" as="geometry" />
        </mxCell>
        <mxCell id="4j3NIIBJetrJBVHfiiN4-65" value="관리자 인증" style="ellipse;whiteSpace=wrap;html=1;labelPosition=center;verticalLabelPosition=bottom;align=center;verticalAlign=top;" parent="1" vertex="1">
          <mxGeometry x="620" y="150" width="70" height="40" as="geometry" />
        </mxCell>
        <mxCell id="4j3NIIBJetrJBVHfiiN4-67" value="" style="endArrow=classic;html=1;rounded=0;" parent="1" edge="1">
          <mxGeometry width="50" height="50" relative="1" as="geometry">
            <mxPoint x="1020" y="260" as="sourcePoint" />
            <mxPoint x="890" y="120" as="targetPoint" />
          </mxGeometry>
        </mxCell>
        <mxCell id="4j3NIIBJetrJBVHfiiN4-70" value="" style="endArrow=classic;html=1;rounded=0;" parent="1" edge="1">
          <mxGeometry width="50" height="50" relative="1" as="geometry">
            <mxPoint x="980" y="310" as="sourcePoint" />
            <mxPoint x="880" y="220" as="targetPoint" />
          </mxGeometry>
        </mxCell>
        <mxCell id="4j3NIIBJetrJBVHfiiN4-72" value="" style="endArrow=classic;html=1;rounded=0;" parent="1" edge="1">
          <mxGeometry width="50" height="50" relative="1" as="geometry">
            <mxPoint x="980" y="340" as="sourcePoint" />
            <mxPoint x="880" y="310" as="targetPoint" />
          </mxGeometry>
        </mxCell>
        <mxCell id="4j3NIIBJetrJBVHfiiN4-82" value="" style="edgeStyle=elbowEdgeStyle;elbow=vertical;endArrow=classic;html=1;curved=0;rounded=0;endSize=8;startSize=8;" parent="1" edge="1">
          <mxGeometry width="50" height="50" relative="1" as="geometry">
            <mxPoint x="595" y="260" as="sourcePoint" />
            <mxPoint x="645" y="210" as="targetPoint" />
          </mxGeometry>
        </mxCell>
        <mxCell id="4j3NIIBJetrJBVHfiiN4-85" value="" style="edgeStyle=elbowEdgeStyle;elbow=vertical;endArrow=classic;html=1;curved=0;rounded=0;endSize=8;startSize=8;" parent="1" edge="1">
          <mxGeometry width="50" height="50" relative="1" as="geometry">
            <mxPoint x="695" y="260" as="sourcePoint" />
            <mxPoint x="645" y="210" as="targetPoint" />
            <Array as="points">
              <mxPoint x="675" y="235" />
            </Array>
          </mxGeometry>
        </mxCell>
        <mxCell id="4j3NIIBJetrJBVHfiiN4-86" value="" style="endArrow=classic;html=1;rounded=0;exitX=0.5;exitY=0;exitDx=0;exitDy=0;" parent="1" source="4j3NIIBJetrJBVHfiiN4-61" target="4j3NIIBJetrJBVHfiiN4-59" edge="1">
          <mxGeometry width="50" height="50" relative="1" as="geometry">
            <mxPoint x="830" y="370" as="sourcePoint" />
            <mxPoint x="880" y="320" as="targetPoint" />
          </mxGeometry>
        </mxCell>
        <mxCell id="4j3NIIBJetrJBVHfiiN4-88" value="" style="shape=partialRectangle;whiteSpace=wrap;html=1;bottom=0;right=0;fillColor=none;" parent="1" vertex="1">
          <mxGeometry x="715" y="344" width="120" height="30" as="geometry" />
        </mxCell>
        <mxCell id="4j3NIIBJetrJBVHfiiN4-89" value="" style="shape=partialRectangle;whiteSpace=wrap;html=1;bottom=0;right=0;fillColor=none;direction=east;flipV=0;flipH=1;" parent="1" vertex="1">
          <mxGeometry x="835" y="344" width="115" height="26" as="geometry" />
        </mxCell>
        <mxCell id="4j3NIIBJetrJBVHfiiN4-92" value="확장" style="endArrow=block;dashed=1;endFill=0;endSize=12;html=1;rounded=0;" parent="1" target="4j3NIIBJetrJBVHfiiN4-63" edge="1">
          <mxGeometry width="160" relative="1" as="geometry">
            <mxPoint x="710" y="480" as="sourcePoint" />
            <mxPoint x="870" y="480" as="targetPoint" />
          </mxGeometry>
        </mxCell>
        <mxCell id="4j3NIIBJetrJBVHfiiN4-93" value="포함" style="endArrow=block;dashed=1;endFill=0;endSize=12;html=1;rounded=0;" parent="1" target="4j3NIIBJetrJBVHfiiN4-65" edge="1">
          <mxGeometry width="160" relative="1" as="geometry">
            <mxPoint x="800" y="100" as="sourcePoint" />
            <mxPoint x="600" y="100" as="targetPoint" />
            <Array as="points">
              <mxPoint x="800" y="100" />
            </Array>
          </mxGeometry>
        </mxCell>
        <mxCell id="4j3NIIBJetrJBVHfiiN4-94" value="포함" style="endArrow=block;dashed=1;endFill=0;endSize=12;html=1;rounded=0;exitX=0;exitY=0.5;exitDx=0;exitDy=0;" parent="1" source="4j3NIIBJetrJBVHfiiN4-58" edge="1">
          <mxGeometry width="160" relative="1" as="geometry">
            <mxPoint x="850" y="180" as="sourcePoint" />
            <mxPoint x="690" y="180" as="targetPoint" />
          </mxGeometry>
        </mxCell>
        <mxCell id="4j3NIIBJetrJBVHfiiN4-95" value="포함" style="endArrow=block;dashed=1;endFill=0;endSize=12;html=1;rounded=0;" parent="1" edge="1">
          <mxGeometry width="160" relative="1" as="geometry">
            <mxPoint x="840" y="270" as="sourcePoint" />
            <mxPoint x="690" y="200" as="targetPoint" />
            <Array as="points" />
          </mxGeometry>
        </mxCell>
      </root>
    </mxGraphModel>
  </diagram>
</mxfile>
